<svg width="30" height="30" viewBox="0 0 30 30" fill="none" xmlns="http://www.w3.org/2000/svg">
<path fill-rule="evenodd" clip-rule="evenodd" d="M14.6516 26.3733C17.7603 26.3733 20.7417 25.1383 22.9399 22.9402C25.1381 20.742 26.373 17.7606 26.373 14.6518C26.373 11.5431 25.1381 8.56174 22.9399 6.36355C20.7417 4.16535 17.7603 2.93042 14.6516 2.93042C11.5429 2.93042 8.5615 4.16535 6.3633 6.36355C4.16511 8.56174 2.93018 11.5431 2.93018 14.6518C2.93018 17.7606 4.16511 20.742 6.3633 22.9402C8.5615 25.1383 11.5429 26.3733 14.6516 26.3733V26.3733ZM20.083 12.7574C20.3499 12.481 20.4976 12.1109 20.4943 11.7268C20.4909 11.3426 20.3368 10.9751 20.0652 10.7035C19.7935 10.4318 19.426 10.2777 19.0419 10.2744C18.6577 10.271 18.2876 10.4187 18.0113 10.6856L13.1864 15.5104L11.2919 13.616C11.0156 13.3491 10.6455 13.2014 10.2613 13.2047C9.87718 13.2081 9.50969 13.3622 9.23804 13.6338C8.96638 13.9055 8.81229 14.273 8.80895 14.6571C8.80561 15.0413 8.95329 15.4114 9.22019 15.6877L12.1505 18.6181C12.4253 18.8928 12.7979 19.0471 13.1864 19.0471C13.5749 19.0471 13.9475 18.8928 14.2223 18.6181L20.083 12.7574V12.7574Z" fill="#2F77F1"/>
</svg>
