<svg width="41" height="42" viewBox="0 0 41 42" fill="none" xmlns="http://www.w3.org/2000/svg">
<g clip-path="url(#clip0_498_6484)">
<path d="M12.7872 10.3986C18.5278 6.06567 26.8421 7.13237 31.2552 12.9792C35.5881 18.7197 34.5215 27.034 28.6746 31.4472C22.9341 35.7801 14.6198 34.7134 10.2066 28.8666C5.79347 23.0198 6.94041 14.8118 12.7872 10.3986Z" fill="white" stroke="#7C6FF5" stroke-width="1.54499"/>
<mask id="mask0_498_6484" style="mask-type:luminance" maskUnits="userSpaceOnUse" x="12" y="12" width="18" height="18">
<path d="M14.2097 12.343L12.5693 27.7056L27.9319 29.3459L29.5723 13.9833L14.2097 12.343Z" fill="white"/>
</mask>
<g mask="url(#mask0_498_6484)">
<path d="M17.3842 15.6059L17.2559 17.2045L23.438 17.8782L15.9444 23.868L16.9073 25.1437L24.4009 19.1539L23.7272 25.3359L25.3259 25.4642L26.2842 16.5642L17.3842 15.6059Z" fill="#7C6FF5"/>
</g>
</g>
<defs>
<clipPath id="clip0_498_6484">
<rect width="27.9697" height="29.3016" fill="white" transform="translate(0.555664 17.6279) rotate(-37.0453)"/>
</clipPath>
</defs>
</svg>
