<svg width="127" height="20" viewBox="0 0 127 20" fill="none" xmlns="http://www.w3.org/2000/svg">
<path d="M9.01203 19.9631C7.20339 19.9631 5.61303 19.6409 4.24096 18.9964C2.88967 18.3312 1.83983 17.4061 1.09142 16.2211C0.363807 15.0153 0 13.6121 0 12.0113C0 10.4522 0.363807 9.06968 1.09142 7.86392C1.83983 6.65816 2.88967 5.72266 4.24096 5.05741C5.61303 4.39216 7.20339 4.05954 9.01203 4.05954C10.7999 4.05954 12.3695 4.39216 13.7207 5.05741C15.0928 5.72266 16.1427 6.65816 16.8703 7.86392C17.6187 9.06968 17.9929 10.4522 17.9929 12.0113C17.9929 13.6121 17.6187 15.0153 16.8703 16.2211C16.1427 17.4061 15.1032 18.3312 13.7519 18.9964C12.4006 19.6409 10.8207 19.9631 9.01203 19.9631ZM9.01203 16.2835C10.2802 16.2835 11.2884 15.8989 12.0368 15.1297C12.7852 14.3397 13.1594 13.3002 13.1594 12.0113C13.1594 10.6808 12.7852 9.64138 12.0368 8.89298C11.3092 8.12379 10.3009 7.73919 9.01203 7.73919C7.72311 7.73919 6.70445 8.12379 5.95605 8.89298C5.20764 9.64138 4.83344 10.6808 4.83344 12.0113C4.83344 13.3002 5.20764 14.3397 5.95605 15.1297C6.72524 15.8989 7.7439 16.2835 9.01203 16.2835Z" fill="white"/>
<path d="M21.5666 4.52729H26.1193V6.36711C26.8054 5.59792 27.6162 5.02622 28.5517 4.65202C29.508 4.25703 30.5058 4.05954 31.5453 4.05954C33.5826 4.05954 35.1002 4.61044 36.0981 5.71226C37.1167 6.79329 37.6261 8.25891 37.6261 10.1091V19.4954H32.9173V10.6393C32.9173 8.70588 32.0234 7.73919 30.2356 7.73919C29.4456 7.73919 28.7076 7.93668 28.0215 8.33168C27.3355 8.70588 26.7534 9.26718 26.2753 10.0156V19.4954H21.5666V4.52729Z" fill="white"/>
<path d="M50.2939 19.9631C47.425 19.9631 45.1694 19.2771 43.527 17.905C41.8847 16.5121 41.0635 14.5684 41.0635 12.0737C41.0635 9.5998 41.7912 7.64564 43.2464 6.2112C44.7224 4.77676 46.8221 4.05954 49.5455 4.05954C51.3333 4.05954 52.8509 4.39216 54.0983 5.05741C55.3456 5.72266 56.2915 6.64777 56.9359 7.83274C57.5804 8.99692 57.9026 10.317 57.9026 11.793V13.6952H45.554C45.8866 15.6078 47.6744 16.5641 50.9175 16.5641C51.8738 16.5641 52.8613 16.481 53.88 16.3147C54.8986 16.1483 55.7822 15.9197 56.5306 15.6286V18.9341C55.8029 19.2459 54.8674 19.4954 53.724 19.6825C52.5807 19.8696 51.4373 19.9631 50.2939 19.9631ZM53.4434 10.6393C53.381 9.64138 53.0068 8.87219 52.3208 8.33168C51.6348 7.77037 50.6889 7.48972 49.4831 7.48972C48.2981 7.48972 47.3626 7.77037 46.6766 8.33168C45.9905 8.89298 45.6163 9.66217 45.554 10.6393H53.4434Z" fill="white"/>
<path d="M67.5856 19.9631C66.463 19.9631 65.2572 19.8384 63.9683 19.5889C62.7002 19.3602 61.7023 19.0276 60.9747 18.591V14.9114C61.8063 15.4103 62.8041 15.8157 63.9683 16.1276C65.1325 16.4394 66.2135 16.5953 67.2114 16.5953C68.0638 16.5953 68.6874 16.5225 69.0824 16.377C69.4774 16.2315 69.6749 15.9612 69.6749 15.5662C69.6749 15.2544 69.5606 15.0049 69.3319 14.8178C69.1032 14.61 68.7498 14.4332 68.2716 14.2877C67.8143 14.1214 67.0451 13.8823 65.9641 13.5705C64.6959 13.1963 63.6981 12.8221 62.9704 12.4479C62.2636 12.0529 61.7231 11.5644 61.3489 10.9823C60.9955 10.4002 60.8188 9.65178 60.8188 8.73706C60.8188 7.17789 61.4321 6.0137 62.6586 5.24451C63.9059 4.45453 65.5899 4.05954 67.7103 4.05954C68.7498 4.05954 69.8204 4.17388 70.9222 4.40255C72.0448 4.61044 72.9076 4.8911 73.5105 5.24451V8.83061C72.9076 8.43562 72.1176 8.11339 71.1405 7.86392C70.1842 7.61446 69.2487 7.48972 68.334 7.48972C67.4817 7.48972 66.8164 7.57288 66.3383 7.73919C65.8809 7.9055 65.6522 8.21734 65.6522 8.67469C65.6522 9.06968 65.8705 9.37113 66.3071 9.57902C66.7644 9.78691 67.6064 10.0468 68.8329 10.3586L69.4566 10.5145C70.7663 10.8679 71.785 11.2629 72.5126 11.6995C73.2402 12.1153 73.7495 12.6246 74.0406 13.2275C74.3524 13.8096 74.5083 14.5476 74.5083 15.4415C74.5083 16.8136 73.9158 17.9154 72.7309 18.747C71.5459 19.5577 69.8308 19.9631 67.5856 19.9631Z" fill="white"/>
<path d="M86.6982 19.9631C83.8293 19.9631 81.5737 19.2771 79.9313 17.905C78.289 16.5121 77.4678 14.5684 77.4678 12.0737C77.4678 9.5998 78.1955 7.64564 79.6507 6.2112C81.1267 4.77676 83.2264 4.05954 85.9498 4.05954C87.7376 4.05954 89.2552 4.39216 90.5025 5.05741C91.7499 5.72266 92.6958 6.64777 93.3402 7.83274C93.9847 8.99692 94.3069 10.317 94.3069 11.793V13.6952H81.9583C82.2909 15.6078 84.0787 16.5641 87.3218 16.5641C88.2781 16.5641 89.2656 16.481 90.2843 16.3147C91.3029 16.1483 92.1864 15.9197 92.9349 15.6286V18.9341C92.2072 19.2459 91.2717 19.4954 90.1283 19.6825C88.9849 19.8696 87.8416 19.9631 86.6982 19.9631ZM89.8477 10.6393C89.7853 9.64138 89.4111 8.87219 88.7251 8.33168C88.039 7.77037 87.0931 7.48972 85.8874 7.48972C84.7024 7.48972 83.7669 7.77037 83.0809 8.33168C82.3948 8.89298 82.0206 9.66217 81.9583 10.6393H89.8477Z" fill="white"/>
<path d="M104.115 19.9631C102.368 19.9631 101.038 19.485 100.123 18.5287C99.2292 17.5516 98.7822 16.2003 98.7822 14.4748V7.92629H96.5994V4.52729H98.7822V0.0368652H103.491V4.52729H107.015V7.92629H103.491V13.8512C103.491 14.7243 103.657 15.3584 103.99 15.7533C104.323 16.1276 104.915 16.3147 105.767 16.3147C106.453 16.3147 107.108 16.1483 107.732 15.8157V19.3395C106.776 19.7552 105.57 19.9631 104.115 19.9631Z" fill="white"/>
<path d="M116.645 19.9631C114.608 19.9631 113.08 19.4122 112.061 18.3104C111.043 17.1878 110.533 15.7014 110.533 13.8512V4.52729H115.242V13.3522C115.242 15.3064 116.146 16.2835 117.955 16.2835C118.745 16.2835 119.483 16.0964 120.169 15.7222C120.855 15.348 121.427 14.7867 121.884 14.0383V4.52729H126.593V19.4954H122.04V17.6867C121.375 18.4559 120.564 19.0276 119.608 19.4018C118.672 19.776 117.685 19.9631 116.645 19.9631Z" fill="white"/>
</svg>
