<svg width="41" height="41" viewBox="0 0 41 41" fill="none" xmlns="http://www.w3.org/2000/svg">
<path d="M4.01086 17.9698C3.84443 17.3488 3.8444 16.695 4.01079 16.074C4.17718 15.453 4.50412 14.8868 4.95874 14.4322L14.432 4.95896C14.8865 4.50433 15.4528 4.1774 16.0738 4.01101C16.6948 3.84462 17.3486 3.84464 17.9696 4.01108L26.8342 6.38633C26.9265 5.17192 27.3493 4.00587 28.0568 3.01451L17.3801 0.153987C16.6137 -0.0513333 15.8069 -0.051329 15.0405 0.154C14.2742 0.35933 13.5754 0.762752 13.0144 1.32372L1.32372 13.0144C0.762749 13.5754 0.359329 14.2742 0.154 15.0405C-0.051329 15.8069 -0.0513334 16.6137 0.153987 17.3801L3.12456 28.4663C4.09564 27.7247 5.25179 27.2641 6.46681 27.135L4.01086 17.9698Z" fill="#00B8B7"/>
<path d="M34.4307 13.5377L36.9686 23.0092C37.1351 23.6303 37.1349 24.284 36.9686 24.9049C36.8021 25.526 36.4751 26.0922 36.0205 26.5468L26.5473 36.0203C26.0927 36.4749 25.5265 36.8016 24.9054 36.9681C24.2845 37.1344 23.6305 37.1344 23.0097 36.9681L13.8445 34.5122C13.7154 35.7273 13.2549 36.8834 12.5132 37.8544L23.5994 40.825C24.3657 41.0304 25.1726 41.0304 25.9389 40.825C26.7054 40.6196 27.404 40.2164 27.9651 39.6553L39.6558 27.9646C40.2169 27.4035 40.6201 26.7049 40.8255 25.9384C41.0309 25.1721 41.0309 24.3652 40.8255 23.5989L37.7429 12.0977C36.7924 12.8735 35.6462 13.3718 34.4307 13.5377Z" fill="#00B8B7"/>
<path d="M3.39079 29.9952C2.63998 30.7459 2.12867 31.7026 1.92152 32.7439C1.71437 33.7853 1.82068 34.8648 2.22702 35.8458C2.63333 36.8266 3.32143 37.6651 4.20427 38.2551C5.08713 38.8448 6.12506 39.1598 7.18686 39.1598C8.24865 39.1598 9.2866 38.8448 10.1694 38.2551C11.0523 37.6651 11.7404 36.8266 12.1467 35.8458C12.553 34.8648 12.6594 33.7853 12.4522 32.7439C12.2451 31.7026 11.7337 30.7459 10.9829 29.9952C9.97537 28.9899 8.61017 28.4253 7.18686 28.4253C5.76356 28.4253 4.39836 28.9899 3.39079 29.9952Z" fill="#00B8B7"/>
<path d="M29.7179 3.1148C28.9672 3.86559 28.4557 4.82216 28.2487 5.86356C28.0415 6.90494 28.1478 7.98437 28.5541 8.96535C28.9605 9.94631 29.6485 10.7848 30.5313 11.3747C31.4142 11.9646 32.4521 12.2794 33.5138 12.2794C34.5758 12.2794 35.6137 11.9646 36.4966 11.3747C37.3794 10.7848 38.0674 9.94631 38.4737 8.96535C38.8801 7.98437 38.9864 6.90494 38.7792 5.86356C38.5722 4.82216 38.0607 3.86559 37.31 3.1148C36.3026 2.1095 34.9372 1.54492 33.5138 1.54492C32.0907 1.54492 30.7253 2.1095 29.7179 3.1148Z" fill="#00357C"/>
<path d="M23.6449 34.7241C23.4293 34.7241 23.2148 34.6959 23.0065 34.6401L14.6169 32.392C14.3372 30.8982 13.6125 29.5237 12.5378 28.4491C11.4631 27.3745 10.0887 26.6496 8.59489 26.37L6.34701 17.9811C6.23558 17.5627 6.23589 17.1223 6.34797 16.7041C6.46005 16.2858 6.67995 15.9043 6.98568 15.5976L15.5966 6.98646C15.9029 6.68014 16.2844 6.45986 16.7029 6.34773C17.1213 6.23563 17.5619 6.23565 17.9803 6.3478L26.1346 8.53277C26.4581 10.0174 27.2224 11.3696 28.3274 12.4125C29.4324 13.4554 30.8267 14.1402 32.3274 14.3772L34.6393 23.0073C34.7507 23.4258 34.7505 23.8662 34.6382 24.2844C34.5262 24.7027 34.3063 25.0842 34.0004 25.391L25.3895 34.0019C25.161 34.2315 24.8889 34.4138 24.5895 34.5376C24.29 34.6617 23.969 34.725 23.6449 34.7241Z" fill="#00357C"/>
</svg>
