<svg width="127" height="20" viewBox="0 0 127 20" fill="none" xmlns="http://www.w3.org/2000/svg">
<path d="M9.01203 19.9263C7.20339 19.9263 5.61303 19.604 4.24096 18.9596C2.88967 18.2943 1.83983 17.3692 1.09142 16.1842C0.363807 14.9785 0 13.5752 0 11.9745C0 10.4153 0.363807 9.03282 1.09142 7.82706C1.83983 6.6213 2.88967 5.68579 4.24096 5.02054C5.61303 4.35529 7.20339 4.02267 9.01203 4.02267C10.7999 4.02267 12.3695 4.35529 13.7207 5.02054C15.0928 5.68579 16.1427 6.6213 16.8703 7.82706C17.6187 9.03282 17.9929 10.4153 17.9929 11.9745C17.9929 13.5752 17.6187 14.9785 16.8703 16.1842C16.1427 17.3692 15.1032 18.2943 13.7519 18.9596C12.4006 19.604 10.8207 19.9263 9.01203 19.9263ZM9.01203 16.2466C10.2802 16.2466 11.2884 15.862 12.0368 15.0928C12.7852 14.3028 13.1594 13.2634 13.1594 11.9745C13.1594 10.644 12.7852 9.60452 12.0368 8.85611C11.3092 8.08692 10.3009 7.70232 9.01203 7.70232C7.72311 7.70232 6.70445 8.08692 5.95605 8.85611C5.20764 9.60452 4.83344 10.644 4.83344 11.9745C4.83344 13.2634 5.20764 14.3028 5.95605 15.0928C6.72524 15.862 7.7439 16.2466 9.01203 16.2466Z" fill="#00357C"/>
<path d="M21.5666 4.49042H26.1193V6.33025C26.8054 5.56106 27.6162 4.98936 28.5517 4.61516C29.508 4.22017 30.5058 4.02267 31.5453 4.02267C33.5826 4.02267 35.1002 4.57358 36.0981 5.6754C37.1167 6.75642 37.6261 8.22205 37.6261 10.0723V19.4585H32.9173V10.6024C32.9173 8.66901 32.0234 7.70232 30.2356 7.70232C29.4456 7.70232 28.7076 7.89982 28.0215 8.29481C27.3355 8.66901 26.7534 9.23032 26.2753 9.97872V19.4585H21.5666V4.49042Z" fill="#00357C"/>
<path d="M50.2939 19.9263C47.425 19.9263 45.1694 19.2402 43.527 17.8681C41.8847 16.4753 41.0635 14.5315 41.0635 12.0368C41.0635 9.56294 41.7912 7.60877 43.2464 6.17433C44.7224 4.73989 46.8221 4.02267 49.5455 4.02267C51.3333 4.02267 52.8509 4.35529 54.0983 5.02054C55.3456 5.68579 56.2915 6.6109 56.9359 7.79587C57.5804 8.96006 57.9026 10.2802 57.9026 11.7562V13.6584H45.554C45.8866 15.571 47.6744 16.5273 50.9175 16.5273C51.8738 16.5273 52.8613 16.4441 53.88 16.2778C54.8986 16.1115 55.7822 15.8828 56.5306 15.5917V18.8972C55.8029 19.209 54.8674 19.4585 53.724 19.6456C52.5807 19.8327 51.4373 19.9263 50.2939 19.9263ZM53.4434 10.6024C53.381 9.60452 53.0068 8.83532 52.3208 8.29481C51.6348 7.73351 50.6889 7.45286 49.4831 7.45286C48.2981 7.45286 47.3626 7.73351 46.6766 8.29481C45.9905 8.85611 45.6163 9.62531 45.554 10.6024H53.4434Z" fill="#00357C"/>
<path d="M67.5856 19.9263C66.463 19.9263 65.2572 19.8015 63.9683 19.5521C62.7002 19.3234 61.7023 18.9908 60.9747 18.5542V14.8745C61.8063 15.3735 62.8041 15.7789 63.9683 16.0907C65.1325 16.4025 66.2135 16.5584 67.2114 16.5584C68.0637 16.5584 68.6874 16.4857 69.0824 16.3402C69.4774 16.1946 69.6749 15.9244 69.6749 15.5294C69.6749 15.2175 69.5606 14.9681 69.3319 14.781C69.1032 14.5731 68.7498 14.3964 68.2716 14.2509C67.8143 14.0845 67.0451 13.8455 65.9641 13.5336C64.6959 13.1594 63.6981 12.7852 62.9704 12.411C62.2636 12.016 61.7231 11.5275 61.3489 10.9454C60.9955 10.3633 60.8188 9.61491 60.8188 8.70019C60.8188 7.14102 61.4321 5.97684 62.6586 5.20764C63.9059 4.41766 65.5899 4.02267 67.7103 4.02267C68.7498 4.02267 69.8204 4.13701 70.9222 4.36569C72.0448 4.57358 72.9076 4.85423 73.5105 5.20764V8.79375C72.9076 8.39876 72.1176 8.07653 71.1405 7.82706C70.1842 7.57759 69.2487 7.45286 68.334 7.45286C67.4817 7.45286 66.8164 7.53601 66.3383 7.70232C65.8809 7.86864 65.6522 8.18047 65.6522 8.63783C65.6522 9.03282 65.8705 9.33426 66.3071 9.54215C66.7644 9.75004 67.6064 10.0099 68.8329 10.3217L69.4566 10.4777C70.7663 10.8311 71.785 11.2261 72.5126 11.6626C73.2402 12.0784 73.7495 12.5877 74.0406 13.1906C74.3524 13.7727 74.5083 14.5107 74.5083 15.4046C74.5083 16.7767 73.9158 17.8785 72.7309 18.7101C71.5459 19.5209 69.8308 19.9263 67.5856 19.9263Z" fill="#00357C"/>
<path d="M86.6982 19.9263C83.8293 19.9263 81.5737 19.2402 79.9313 17.8681C78.289 16.4753 77.4678 14.5315 77.4678 12.0368C77.4678 9.56294 78.1955 7.60877 79.6507 6.17433C81.1267 4.73989 83.2264 4.02267 85.9498 4.02267C87.7376 4.02267 89.2552 4.35529 90.5025 5.02054C91.7499 5.68579 92.6958 6.6109 93.3402 7.79587C93.9847 8.96006 94.3069 10.2802 94.3069 11.7562V13.6584H81.9583C82.2909 15.571 84.0787 16.5273 87.3218 16.5273C88.2781 16.5273 89.2656 16.4441 90.2843 16.2778C91.3029 16.1115 92.1864 15.8828 92.9349 15.5917V18.8972C92.2072 19.209 91.2717 19.4585 90.1283 19.6456C88.9849 19.8327 87.8416 19.9263 86.6982 19.9263ZM89.8477 10.6024C89.7853 9.60452 89.4111 8.83532 88.7251 8.29481C88.039 7.73351 87.0931 7.45286 85.8874 7.45286C84.7024 7.45286 83.7669 7.73351 83.0809 8.29481C82.3948 8.85611 82.0206 9.62531 81.9583 10.6024H89.8477Z" fill="#00357C"/>
<path d="M104.115 19.9263C102.368 19.9263 101.038 19.4481 100.123 18.4918C99.2292 17.5147 98.7822 16.1634 98.7822 14.438V7.88942H96.5994V4.49042H98.7822V0H103.491V4.49042H107.015V7.88942H103.491V13.8143C103.491 14.6874 103.657 15.3215 103.99 15.7165C104.323 16.0907 104.915 16.2778 105.767 16.2778C106.453 16.2778 107.108 16.1115 107.732 15.7788V19.3026C106.776 19.7184 105.57 19.9263 104.115 19.9263Z" fill="#00357C"/>
<path d="M116.645 19.9263C114.608 19.9263 113.08 19.3753 112.061 18.2735C111.043 17.1509 110.533 15.6645 110.533 13.8143V4.49042H115.242V13.3154C115.242 15.2695 116.146 16.2466 117.955 16.2466C118.745 16.2466 119.483 16.0595 120.169 15.6853C120.855 15.3111 121.427 14.7498 121.884 14.0014V4.49042H126.593V19.4585H122.04V17.6499C121.375 18.4191 120.564 18.9908 119.608 19.365C118.672 19.7392 117.685 19.9263 116.645 19.9263Z" fill="#00357C"/>
</svg>
