<svg width="94" height="93" viewBox="0 0 94 93" fill="none" xmlns="http://www.w3.org/2000/svg">
<path d="M84.2001 2.79004H24.6801C20.9601 3.53404 20.65 7.44004 20.9601 9.30004V81.84L19.1001 88.35V91.14H79.5501C84.7581 91.14 86.68 87.42 86.9901 85.56V11.16C86.9901 5.20804 85.1301 3.10005 84.2001 2.79004Z" fill="#ECF2FF"/>
<path d="M18.3006 22.2092C18.3006 21.6916 18.3006 21.2865 18.3006 20.8797C18.3006 16.4004 18.2952 11.923 18.3024 7.4437C18.3097 2.82095 21.0124 0.11269 25.6117 0.11269C44.3188 0.110874 63.0259 0.110874 81.7349 0.11269C86.2179 0.11269 88.9551 2.82822 88.9551 7.3093C88.9607 33.4237 88.9607 59.5383 88.9551 85.6527C88.9551 90.1338 86.2107 92.8838 81.7586 92.8857C59.2952 92.8875 36.8334 92.8892 14.3699 92.8857C9.79983 92.8857 6.2669 90.2082 5.29331 85.9724C5.1026 85.1423 5.05173 84.265 5.05173 83.4095C5.03903 65.4252 5.03903 47.441 5.04448 29.4567C5.04628 24.9211 7.7818 22.2129 12.3264 22.2075C14.2537 22.2075 16.1809 22.2092 18.3006 22.2092ZM21.5429 88.4464C22.1441 88.4464 22.5438 88.4464 22.9433 88.4464C42.4443 88.4464 61.9434 88.4464 81.4444 88.4446C81.8222 88.4446 82.2037 88.4481 82.5796 88.4083C83.6749 88.2937 84.4105 87.5672 84.534 86.481C84.5686 86.1741 84.5523 85.8616 84.5523 85.551C84.5523 59.5037 84.5523 33.4583 84.5523 7.41102C84.5523 7.1004 84.5759 6.78617 84.5287 6.48282C84.3687 5.4602 83.8111 4.77722 82.7594 4.60285C82.3216 4.5302 81.8694 4.5193 81.4225 4.5193C62.9207 4.51565 44.4205 4.51565 25.9186 4.51565C23.2958 4.51565 22.7272 5.0951 22.7272 7.75612C22.7272 31.8035 22.7344 55.8527 22.7181 79.9001C22.7162 82.7338 23.1286 85.6309 21.5429 88.4464ZM18.3006 26.6031C16.2662 26.6031 14.4099 26.6031 12.5535 26.6031C10.1068 26.605 9.4874 27.2171 9.4874 29.6438C9.4874 47.5136 9.4874 65.3852 9.4874 83.255C9.4874 83.6002 9.48195 83.9435 9.4983 84.2886C9.59456 86.4374 11.2021 88.1793 13.2819 88.3955C15.5869 88.6352 17.5777 87.3819 18.1117 85.2695C18.2861 84.581 18.2933 83.8362 18.2933 83.117C18.3024 64.7314 18.3006 46.3438 18.3006 27.9583C18.3006 27.5513 18.3006 27.1462 18.3006 26.6031Z" fill="#263238"/>
<path d="M40.3664 33.3309C39.0694 33.2201 37.7362 33.2638 36.4829 32.9695C33.6548 32.3029 31.7021 29.8217 31.5985 26.9208C31.5387 25.237 31.5331 23.5477 31.6004 21.864C31.7403 18.3928 34.5357 15.6809 38.0286 15.5992C39.6107 15.561 41.1947 15.561 42.7768 15.601C46.3333 15.69 49.1359 18.5309 49.2031 22.1001C49.2323 23.6476 49.2339 25.1972 49.2014 26.7447C49.1305 30.2649 46.3749 33.0657 42.8512 33.2093C42.0265 33.2437 41.2001 33.2147 40.3737 33.2147C40.3718 33.2528 40.3681 33.2928 40.3664 33.3309ZM35.9723 24.3451C35.9723 25.0337 35.9615 25.7202 35.9742 26.4067C36.0034 27.9816 36.8261 28.8044 38.4173 28.8262C39.7578 28.8463 41.0983 28.8498 42.4388 28.8245C43.8684 28.7972 44.7311 28.0307 44.7912 26.632C44.8546 25.1572 44.851 23.6749 44.7928 22.1983C44.7402 20.8686 43.9519 20.0494 42.6641 19.9985C41.1547 19.9367 39.638 19.9367 38.1284 19.9968C36.7971 20.0494 36.0196 20.9231 35.9779 22.2818C35.9562 22.9702 35.9742 23.6586 35.9723 24.3451Z" fill="#263238"/>
<path d="M40.4405 37.5776C41.7375 37.6904 43.0707 37.6466 44.3223 37.9446C47.174 38.6239 49.1375 41.1924 49.1974 44.1131C49.2301 45.6952 49.232 47.279 49.1974 48.8595C49.1194 52.405 46.2731 55.2313 42.7147 55.304C41.1672 55.3349 39.6178 55.3367 38.0701 55.304C34.5372 55.2331 31.7236 52.4995 31.5947 48.9739C31.5329 47.29 31.5311 45.6007 31.6001 43.9187C31.74 40.533 34.4609 37.8483 37.8504 37.6995C38.7096 37.6612 39.5706 37.6939 40.4297 37.6939C40.4351 37.6558 40.4388 37.6176 40.4405 37.5776ZM40.357 42.0805C39.6358 42.0805 38.9129 42.0552 38.1919 42.0861C36.8512 42.1441 36.014 42.9705 35.9832 44.3075C35.9486 45.7497 35.9523 47.1936 35.9832 48.6359C36.0103 49.9874 36.8058 50.8446 38.1519 50.8991C39.6267 50.9592 41.1071 50.952 42.5839 50.9047C43.899 50.861 44.7237 50.0873 44.7873 48.7795C44.8598 47.2718 44.858 45.7551 44.7927 44.2457C44.7345 42.8889 43.8863 42.1296 42.524 42.0824C41.7992 42.0587 41.0781 42.0805 40.357 42.0805Z" fill="#263238"/>
<path d="M38.2772 69.8227C40.5023 67.585 42.7075 65.3615 44.9179 63.142C45.185 62.8732 45.4466 62.5935 45.7499 62.3699C46.6563 61.7033 47.8006 61.7978 48.5762 62.5734C49.3427 63.3399 49.4573 64.5152 48.8178 65.4034C48.5781 65.7358 48.2728 66.0228 47.9804 66.3135C45.3521 68.9472 42.7256 71.581 40.0883 74.2075C38.7295 75.5607 37.6323 75.5534 36.2609 74.1984C34.9623 72.9142 33.6672 71.6264 32.3903 70.324C31.2313 69.1435 31.1733 67.9754 32.1887 66.9801C33.2003 65.9865 34.3375 66.0681 35.5382 67.2344C36.3772 68.05 37.2038 68.8799 38.0374 69.7028C38.0611 69.7245 38.0973 69.7337 38.2772 69.8227Z" fill="#263238"/>
<path d="M64.601 44.2912C61.7092 44.2912 58.8175 44.3038 55.9258 44.2858C54.3074 44.2767 53.4246 43.3593 53.5282 41.8644C53.6136 40.6348 54.4419 39.8882 55.8296 39.8701C58.0328 39.8409 60.2361 39.8501 62.4395 39.8482C66.0886 39.8447 69.7377 39.8246 73.3869 39.8573C75.2995 39.8755 76.3368 41.3087 75.6938 42.9308C75.2761 43.9878 74.4259 44.2949 73.3796 44.2912C70.4535 44.2876 67.5271 44.293 64.601 44.2912Z" fill="#263238"/>
<path d="M64.7075 66.3736C61.8485 66.3736 58.9913 66.3844 56.1321 66.368C54.8208 66.3608 54.0779 65.8813 53.7673 64.9258C53.275 63.4164 54.2031 62.045 55.8198 61.9578C56.7807 61.9051 57.747 61.9433 58.7116 61.9433C63.4306 61.9433 68.1477 61.9379 72.8667 61.9505C73.3427 61.9524 73.8386 61.9797 74.2908 62.114C75.268 62.4029 75.7657 63.262 75.6913 64.37C75.6223 65.3835 74.9957 66.172 73.9984 66.2864C73.0447 66.3954 72.0748 66.368 71.1122 66.3736C68.9779 66.3809 66.8418 66.3736 64.7075 66.3736Z" fill="#263238"/>
<path d="M64.6042 22.2076C61.7106 22.2076 58.8172 22.2312 55.9255 22.1985C54.1689 22.1786 53.1699 20.76 53.7422 19.187C54.0763 18.266 54.7611 17.8264 55.7166 17.8101C56.9208 17.7901 58.127 17.7937 59.333 17.7937C63.983 17.7919 68.633 17.7828 73.283 17.7992C74.976 17.8046 75.9022 18.7582 75.7425 20.2477C75.6099 21.4919 74.8034 22.1912 73.3901 22.2003C70.4586 22.2221 67.5304 22.2076 64.6042 22.2076Z" fill="#263238"/>
<path d="M60.2911 26.605C61.6679 26.605 63.0465 26.5868 64.4235 26.6085C65.971 26.634 66.8647 27.4496 66.8792 28.8009C66.8937 30.1543 66.0054 31.0188 64.4705 31.0352C61.6461 31.0623 58.8215 31.066 55.999 31.0333C54.5203 31.0151 53.6595 30.1669 53.6466 28.85C53.634 27.4913 54.5275 26.6394 56.0551 26.6104C57.4665 26.5831 58.8797 26.605 60.2911 26.605Z" fill="#263238"/>
<path d="M60.3654 53.1152C58.9542 53.1152 57.541 53.1388 56.1296 53.1079C54.5494 53.0735 53.712 52.2834 53.7139 50.9029C53.7157 49.5243 54.5875 48.7086 56.1369 48.6995C58.9269 48.6832 61.7169 48.6832 64.505 48.6995C66.0163 48.7086 66.9481 49.5769 66.9446 50.912C66.9427 52.216 66.0764 53.0281 64.5995 53.1098C64.5305 53.1135 64.4615 53.1152 64.3925 53.1152C63.052 53.1152 61.7078 53.1152 60.3654 53.1152Z" fill="#263238"/>
<path d="M60.2631 70.7997C61.709 70.7997 63.1567 70.7815 64.6008 70.8051C65.9867 70.8287 66.8512 71.6624 66.8821 72.9448C66.9148 74.2617 66.0393 75.1662 64.6026 75.1826C61.7109 75.2135 58.8173 75.2135 55.9256 75.1826C54.4906 75.1681 53.6151 74.2636 53.6443 72.9467C53.6751 71.6315 54.5614 70.8177 56.0254 70.8015C57.4387 70.7852 58.85 70.7978 60.2631 70.7997Z" fill="#263238"/>
</svg>
