<svg width="61" height="61" viewBox="0 0 61 61" fill="none" xmlns="http://www.w3.org/2000/svg">
<g clip-path="url(#clip0_152_281)">
<mask id="mask0_152_281" style="mask-type:luminance" maskUnits="userSpaceOnUse" x="0" y="0" width="61" height="61">
<path d="M60.9399 0.390015H0.939941V60.39H60.9399V0.390015Z" fill="white"/>
</mask>
<g mask="url(#mask0_152_281)">
<path d="M9.81734 35.1237H2.51416V55.2074H9.81734V35.1237Z" fill="#ECF2FF"/>
<path d="M19.8628 24.5455V34.2378L37.4013 44.8532L39.709 48.084L54.4782 39.3147V24.5455L37.4013 7.00696L19.8628 24.5455Z" fill="#E2EBFE"/>
<mask id="mask1_152_281" style="mask-type:luminance" maskUnits="userSpaceOnUse" x="31" y="20" width="16" height="19">
<path d="M46.333 20.5173H31.7266V38.7752H46.333V20.5173Z" fill="white"/>
</mask>
<g mask="url(#mask1_152_281)">
<path d="M39.3275 27.3515C37.2784 27.3515 35.3427 27.3515 33.4141 27.3515C33.095 27.3515 32.6767 27.4375 32.4923 27.2654C32.152 26.9786 31.7904 26.5411 31.7549 26.1395C31.6911 25.4798 32.1733 25.1212 32.8398 25.1212C34.5982 25.114 36.3637 25.114 38.1222 25.114C38.4909 25.114 38.8667 25.114 39.2779 25.114C38.8241 23.6941 37.7535 22.8694 36.3425 22.8264C35.2505 22.7906 34.1515 22.8121 33.0596 22.8121C32.2796 22.8192 31.7266 22.5181 31.7266 21.6647C31.7266 20.797 32.3222 20.5173 33.0738 20.5173C37.0586 20.5173 41.0363 20.5173 45.0212 20.5245C45.7799 20.5245 46.3471 20.8185 46.3258 21.7005C46.3046 22.5898 45.7373 22.8192 44.9716 22.8192C43.6315 22.8121 42.2984 22.8192 40.8591 22.8192C41.1427 23.522 41.3554 24.1818 41.6887 24.7842C41.795 24.985 42.1992 25.0925 42.4757 25.1069C43.3904 25.1499 44.305 25.1212 45.2197 25.1356C45.9359 25.1499 46.34 25.5156 46.3329 26.2614C46.3258 27.0144 45.9004 27.3443 45.1914 27.3586C44.9786 27.3658 44.7659 27.3873 44.5603 27.3658C42.9366 27.1865 41.717 27.3228 40.8874 29.2447C40.0437 31.2096 38.0371 31.9984 35.5767 31.9697C36.8317 33.239 37.9094 34.3291 38.9872 35.4191C39.4339 35.8709 39.8948 36.3155 40.3273 36.7816C40.8024 37.2908 40.8945 37.8645 40.3911 38.3951C39.8451 38.9688 39.2566 38.8756 38.7249 38.3449C37.2004 36.8175 35.683 35.2757 34.1657 33.741C33.4921 33.0598 32.7618 32.4287 32.1733 31.6829C31.918 31.3602 31.7407 30.7219 31.8826 30.3849C32.0315 30.0478 32.6058 29.7395 33.0241 29.7036C34.109 29.6104 35.208 29.6965 36.2999 29.6606C37.7109 29.5961 38.7461 28.8359 39.3275 27.3515Z" fill="#283742"/>
</g>
<path d="M60.9396 45.2137C60.2963 47.2064 58.8842 48.3675 57.0327 49.2932C51.2116 52.196 45.4061 55.1458 39.6477 58.174C34.3287 60.9669 29.0567 61.2337 23.6435 58.4251C21.1173 57.1228 18.4813 56.0401 15.8924 54.8633C14.4018 54.1887 12.8328 54.0004 11.0284 54.2985C10.997 54.5809 10.9656 54.879 10.9499 55.1772C10.9029 56.1656 10.4478 56.6991 9.42797 56.6834C7.0901 56.6677 4.73654 56.6834 2.39866 56.6834C1.45724 56.6834 0.939453 56.197 0.939453 55.2399C0.939453 48.2891 0.939453 41.3382 0.939453 34.3873C0.939453 33.3518 1.50431 32.9281 2.49281 32.9438C4.67378 32.9595 6.87043 32.9438 9.0514 32.9438C10.6204 32.9438 10.8244 33.1635 10.9656 34.7639C10.9813 34.9051 11.0284 35.062 11.0598 35.2189C13.5075 34.9679 15.8924 34.7325 18.3715 34.4815C18.3715 32.1593 18.3715 29.7587 18.3715 27.2796C18.0577 27.2953 17.7753 27.3267 17.4772 27.3423C15.8454 27.3894 14.5744 26.7304 13.837 25.2555C13.1152 23.8277 13.2564 22.4469 14.4018 21.2545C17.6184 17.9595 20.8349 14.6645 24.0828 11.3852C26.86 8.57663 29.6215 5.76804 32.4772 3.0536C33.5598 2.03372 34.8778 1.26489 36.086 0.38623C36.7921 0.38623 37.4981 0.38623 38.1885 0.38623C39.0986 0.951085 40.1655 1.35904 40.903 2.09648C46.7084 7.8078 52.4511 13.5662 58.1781 19.3402C59.1823 20.3601 60.0139 21.5526 60.9239 22.6509C60.9239 23.2785 60.9239 23.9061 60.9239 24.5338C59.9825 26.6677 58.4292 27.7032 56.0285 27.2639C56.0285 31.265 56.0285 35.1562 56.0285 39.1102C58.6018 39.3298 60.0766 40.8047 60.9239 43.0485C60.9396 43.8016 60.9396 44.5077 60.9396 45.2137ZM39.6948 46.7514C39.9458 46.6886 40.0557 46.6729 40.1655 46.6259C44.3705 44.492 48.5913 42.3581 52.7649 40.1614C53.1101 39.9731 53.4082 39.3298 53.4239 38.8905C53.471 34.6384 53.471 30.3706 53.4239 26.1185C53.4239 25.585 53.1258 24.9103 52.7335 24.5181C47.8695 19.5913 42.9741 14.7116 38.0944 9.83186C37.8276 9.56512 37.5295 9.29839 37.2471 9.04734C37.0902 9.14148 36.9804 9.18855 36.9019 9.267C31.7397 14.4291 26.5619 19.5756 21.4155 24.7691C21.1016 25.0829 20.9447 25.6635 20.9447 26.1185C20.8977 28.3465 20.9291 30.5746 20.9291 32.8026C20.9291 34.8424 20.9604 34.7796 22.8433 35.6426C27.2837 37.6666 31.6613 39.8005 36.1017 41.8089C38.2199 42.7817 39.5693 44.2409 39.6948 46.7514ZM11.0127 51.7566C13.6487 51.4428 15.9395 52.0391 18.1675 53.1217C20.8035 54.3926 23.4709 55.5694 26.154 56.7776C29.6529 58.3466 33.1833 58.5192 36.6665 56.7776C42.676 53.7807 48.6383 50.7368 54.6321 47.6928C55.495 47.2535 56.3894 46.8298 57.221 46.3278C58.3978 45.6217 58.7586 44.2252 58.1624 43.0641C57.5662 41.8874 56.2482 41.401 54.9773 41.9031C54.6478 42.0286 54.3496 42.2012 54.0358 42.3581C49.0306 44.9156 43.9469 47.3163 39.0672 50.0935C36.0546 51.8037 33.4186 51.992 30.4218 50.2347C28.0682 48.8696 25.5107 47.8654 23.0316 46.7043C22.2627 46.3434 21.792 45.8257 22.2157 44.947C22.6393 44.0997 23.3297 44.084 24.0985 44.4606C24.3496 44.5861 24.6006 44.6803 24.836 44.8058C27.6916 46.1552 30.5473 47.5202 33.4186 48.8382C34.8778 49.5129 36.3057 49.0579 36.9333 47.787C37.5923 46.4533 37.0588 45.0255 35.5525 44.3037C31.5828 42.4052 27.5347 40.6321 23.6121 38.6081C19.4855 36.4899 15.3119 37.0547 11.0284 37.8392C11.0127 42.4522 11.0127 47.0181 11.0127 51.7566ZM37.1059 2.69272C36.337 3.19481 35.5525 3.55569 34.972 4.12055C28.8998 10.1457 22.859 16.2022 16.8182 22.2587C16.5985 22.4783 16.2533 22.7137 16.2219 22.949C16.1749 23.4354 16.1592 24.1258 16.4416 24.4082C16.724 24.6907 17.4144 24.675 17.8851 24.5808C18.2146 24.5181 18.4813 24.0944 18.7481 23.8277C24.3496 18.2576 29.9354 12.6718 35.5211 7.10173C37.0588 5.56407 37.3255 5.56407 38.8318 7.07035C44.4333 12.6718 50.0505 18.2733 55.6519 23.8905C55.903 24.1415 56.1384 24.5495 56.4208 24.5808C56.9699 24.6593 57.6917 24.7064 58.0683 24.4239C58.3193 24.2356 58.1467 23.4197 58.0683 22.902C58.0369 22.7137 57.7858 22.5411 57.6289 22.3685C51.4626 16.1865 45.3277 10.0201 39.1456 3.88519C38.6592 3.39879 37.9218 3.16343 37.1059 2.69272ZM3.51268 35.4857C3.51268 41.7618 3.51268 47.9125 3.51268 54.1102C5.16018 54.1102 6.72922 54.1102 8.32964 54.1102C8.32964 47.8654 8.32964 41.6834 8.32964 35.4857C6.71353 35.4857 5.16018 35.4857 3.51268 35.4857Z" fill="#283742"/>
<path d="M60.9389 43.0959C60.0916 40.8522 58.601 39.3773 56.0435 39.1576C56.0435 35.2036 56.0435 31.2967 56.0435 27.3113C58.4441 27.7663 59.9975 26.7151 60.9389 24.5812C60.9389 30.7475 60.9389 36.9296 60.9389 43.0959Z" fill="white"/>
<path d="M37.1065 -4.61011C37.9067 -4.15509 38.6441 -3.90404 39.1462 -3.41764C45.3283 2.71731 51.4632 8.88365 57.6138 15.05C57.7864 15.2226 58.0375 15.3795 58.0532 15.5835C58.1159 16.1013 58.3042 16.9172 58.0532 17.1055C57.6766 17.3879 56.9549 17.3408 56.4057 17.2624C56.1233 17.2153 55.8879 16.823 55.6369 16.572C50.0354 10.9705 44.4339 5.369 38.8324 -0.232481C37.3261 -1.73876 37.0594 -1.72307 35.5217 -0.2011C29.936 5.369 24.3659 10.9548 18.7801 16.5249C18.4976 16.8073 18.2466 17.2153 17.9171 17.278C17.4464 17.3722 16.756 17.3879 16.4736 17.1055C16.1911 16.823 16.2068 16.1483 16.2539 15.6462C16.2696 15.3952 16.6305 15.1755 16.8501 14.9559C22.891 8.89934 28.9318 2.84284 35.004 -3.18228C35.5531 -3.74714 36.3376 -4.09233 37.1065 -4.61011Z" fill="white"/>
</g>
</g>
<defs>
<clipPath id="clip0_152_281">
<rect width="60" height="60" fill="white" transform="translate(0.939941 0.390015)"/>
</clipPath>
</defs>
</svg>
