<svg width="24" height="24" viewBox="0 0 24 24" fill="none" xmlns="http://www.w3.org/2000/svg">
<g clip-path="url(#clip0_144_869)">
<path fill-rule="evenodd" clip-rule="evenodd" d="M5.66843 0.292927C7.11543 0.0729268 8.95843 0.0499268 11.2904 0.0499268C13.6224 0.0499268 15.4644 0.0729268 16.9104 0.292927C18.3844 0.517927 19.5704 0.962927 20.5094 1.89693L20.5284 1.91693C21.4614 2.85393 21.9084 4.03893 22.1344 5.51293C22.3564 6.95993 22.3804 8.80193 22.3804 11.1349C22.3804 13.4679 22.3564 15.3099 22.1344 16.7569C21.9084 18.2309 21.4614 19.4169 20.5284 20.3539L20.5084 20.3729C19.5704 21.3069 18.3844 21.7529 16.9114 21.9769C15.4644 22.1969 13.6224 22.2199 11.2904 22.2199C8.95743 22.2199 7.11543 22.1969 5.66943 21.9769C4.19543 21.7519 3.00943 21.3069 2.07143 20.3729L2.05143 20.3529C1.12043 19.4169 0.670433 18.2329 0.441433 16.7589C0.216433 15.3109 0.19043 13.4689 0.19043 11.1349C0.19043 8.80093 0.21643 6.95893 0.44043 5.51093C0.67043 4.03693 1.12043 2.85293 2.05243 1.91593L2.07143 1.89693C3.00943 0.962927 4.19543 0.516927 5.66843 0.292927ZM5.97043 2.26993C4.72843 2.45993 4.00743 2.79193 3.48243 3.31493L3.46943 3.32693C2.94543 3.85393 2.60943 4.57693 2.41743 5.81693C2.22143 7.08593 2.19043 8.76893 2.19043 11.1349C2.19043 13.5009 2.22043 15.1849 2.41743 16.4519C2.61043 17.6939 2.94543 18.4159 3.46943 18.9419L3.48243 18.9559C4.00743 19.4779 4.72743 19.8099 5.97043 19.9999C7.23943 20.1929 8.92243 20.2199 11.2904 20.2199C13.6574 20.2199 15.3404 20.1929 16.6104 19.9999C17.8524 19.8099 18.5724 19.4779 19.0974 18.9559L19.1104 18.9429C19.6334 18.4169 19.9674 17.6959 20.1574 16.4539C20.3524 15.1849 20.3804 13.5019 20.3804 11.1349C20.3804 8.76793 20.3524 7.08493 20.1574 5.81593C19.9674 4.57393 19.6334 3.85293 19.1104 3.32693L19.0974 3.31493C18.5724 2.79193 17.8524 2.45993 16.6104 2.26993C15.3404 2.07693 13.6574 2.04993 11.2904 2.04993C8.92243 2.04993 7.23943 2.07693 5.97043 2.26993ZM5.68843 11.1349C5.68843 9.64919 6.27864 8.2243 7.32922 7.17372C8.3798 6.12314 9.80469 5.53293 11.2904 5.53293C12.7761 5.53293 14.201 6.12314 15.2516 7.17372C16.3022 8.2243 16.8924 9.64919 16.8924 11.1349C16.8924 12.6206 16.3022 14.0455 15.2516 15.0961C14.201 16.1467 12.7761 16.7369 11.2904 16.7369C9.80469 16.7369 8.3798 16.1467 7.32922 15.0961C6.27864 14.0455 5.68843 12.6206 5.68843 11.1349ZM11.2904 7.53293C10.8174 7.53293 10.349 7.6261 9.91201 7.80712C9.47499 7.98813 9.07791 8.25346 8.74343 8.58793C8.40895 8.92241 8.14363 9.31949 7.96262 9.7565C7.7816 10.1935 7.68843 10.6619 7.68843 11.1349C7.68843 11.6079 7.7816 12.0763 7.96262 12.5133C8.14363 12.9503 8.40895 13.3474 8.74343 13.6819C9.07791 14.0164 9.47499 14.2817 9.91201 14.4627C10.349 14.6437 10.8174 14.7369 11.2904 14.7369C12.2457 14.7369 13.1619 14.3574 13.8374 13.6819C14.5129 13.0064 14.8924 12.0902 14.8924 11.1349C14.8924 10.1796 14.5129 9.26344 13.8374 8.58793C13.1619 7.91243 12.2457 7.53293 11.2904 7.53293Z" fill="white"/>
<path d="M16.8551 4.44153C16.6043 4.69226 16.4634 5.03234 16.4634 5.38693C16.4634 5.74153 16.6043 6.0816 16.8551 6.33233C17.1058 6.58307 17.4459 6.72393 17.8004 6.72393C18.155 6.72393 18.4951 6.58307 18.7459 6.33233C18.9966 6.0816 19.1375 5.74153 19.1375 5.38693C19.1375 5.03234 18.9966 4.69226 18.7459 4.44153C18.4951 4.19079 18.155 4.04993 17.8004 4.04993C17.4459 4.04993 17.1058 4.19079 16.8551 4.44153Z" fill="white"/>
</g>
<defs>
<clipPath id="clip0_144_869">
<rect width="23" height="23" fill="white" transform="translate(0.19043 0.0499268)"/>
</clipPath>
</defs>
</svg>
