<svg width="21" height="20" viewBox="0 0 21 20" fill="none" xmlns="http://www.w3.org/2000/svg">
<g clip-path="url(#clip0_144_863)">
<path d="M4.73225 2.24093C4.73225 0.929927 3.64625 0.0499268 2.37125 0.0499268C1.09625 0.0499268 0.0212539 0.986927 0.0102539 2.24193C0.0212539 3.49593 1.09625 4.43393 2.37125 4.43393C3.64625 4.43393 4.73225 3.48393 4.73225 2.24093ZM0.247254 6.35593H4.40825V18.9859H0.247254V6.35593ZM15.1133 5.83393C17.9123 5.83393 20.0103 7.67393 20.0103 11.6199V18.9869H15.8453V12.1489C15.8453 10.3949 15.3433 9.25493 13.7693 9.25493C12.4793 9.25693 11.6853 10.6709 11.6853 11.8849V18.9879L7.52825 18.9869V6.35693H11.2663V7.93693C11.6579 7.27173 12.2224 6.72498 12.8997 6.35472C13.577 5.98445 14.3419 5.80449 15.1133 5.83393Z" fill="white"/>
</g>
<defs>
<clipPath id="clip0_144_863">
<rect width="20" height="19" fill="white" transform="translate(0.0102539 0.0499268)"/>
</clipPath>
</defs>
</svg>
