<svg width="93" height="93" viewBox="0 0 93 93" fill="none" xmlns="http://www.w3.org/2000/svg">
<g clip-path="url(#clip0_152_59)">
<mask id="mask0_152_59" style="mask-type:luminance" maskUnits="userSpaceOnUse" x="0" y="0" width="93" height="93">
<path d="M93 0H0V93H93V0Z" fill="white"/>
</mask>
<g mask="url(#mask0_152_59)">
<path d="M51.1496 20.4602C36.2696 24.9242 32.5496 39.6803 32.5496 46.5002C31.8056 48.7324 35.3396 48.6702 37.1996 48.3602C41.6636 48.3602 47.1195 51.4602 49.2896 53.0102L55.7996 53.9402C62.4956 53.1962 64.7895 55.4901 65.0996 56.7302L75.3296 48.3602C75.3296 37.2002 69.7496 28.8302 66.9596 26.0402C61.7516 20.0882 54.2497 19.8402 51.1496 20.4602Z" fill="#EBF1FE"/>
<path d="M62.3106 3.7204C60.0786 1.48839 49.6007 2.17039 44.6406 2.7904L50.2206 13.0203H55.8006L59.5206 11.1603L62.3106 3.7204Z" fill="#EBF1FE"/>
<path d="M16.0386 56.6667C17.9857 54.972 19.8839 53.2973 21.8075 51.6516C24.0815 49.708 26.6591 48.3039 29.5235 47.4375C29.9995 47.2941 30.25 47.1414 30.2755 46.5438C30.7078 35.8907 35.1907 27.4624 44.1256 21.5047C44.1747 21.4719 44.2164 21.4266 44.3219 21.3323C43.1793 19.8264 42.7343 18.1353 43.2737 16.2753C43.8187 14.3989 45.0975 13.2019 46.9811 12.5371C46.8503 12.2628 46.754 12.0249 46.6286 11.8015C45.2827 9.37839 43.9277 6.96257 42.5872 4.53587C41.7443 3.01007 42.1894 1.92204 43.8695 1.45524C46.5486 0.712325 49.2607 0.256408 52.0634 0.249142C55.8996 0.24006 59.7141 0.261857 63.4395 1.36078C65.3921 1.93659 65.8499 2.92834 64.8672 4.70297C63.4395 7.28409 62.0045 9.85974 60.5386 12.499C62.3769 13.1765 63.7029 14.3317 64.2605 16.2008C64.8163 18.0663 64.4167 19.7738 63.2615 21.2832C72.0984 27.2391 76.6139 35.5983 77.3949 46.1843C77.5584 46.0989 77.76 46.0154 77.9417 45.8973C79.384 44.9636 80.7935 43.9774 82.2666 43.0963C86.0392 40.8386 90.9271 42.4353 92.3385 46.5639C93.2559 49.2484 92.8835 52.0967 90.5349 54.2727C86.0664 58.4123 81.6416 62.5973 77.197 66.7624C74.4905 69.2979 71.7676 71.8156 69.085 74.3767C67.0851 76.2874 64.7473 77.194 61.9755 77.1812C53.8635 77.1468 45.7531 77.1685 37.6411 77.1685C37.3214 77.1685 37.0035 77.1685 36.7928 77.1685C37.0308 77.8714 37.5103 78.5671 37.4049 79.1611C37.2886 79.8222 36.7219 80.4689 36.2115 80.9865C32.6531 84.5922 29.0622 88.165 25.4784 91.7452C24.1343 93.0875 23.3351 93.0803 21.9728 91.7197C15.0432 84.7901 8.11357 77.8606 1.18398 70.931C-0.134726 69.6123 -0.136542 68.8076 1.17672 67.4943C4.71509 63.9542 8.25344 60.4157 11.7936 56.8756C13.67 55.0064 13.9206 54.9919 16.0386 56.6667ZM18.5724 59.2443C18.7359 59.4368 18.8213 59.553 18.923 59.6564C23.4205 64.1576 27.9105 68.664 32.4335 73.1379C32.7041 73.4067 33.2255 73.5374 33.6304 73.5393C43.0976 73.5611 52.5665 73.543 62.0335 73.5683C63.8264 73.5739 65.3014 72.9908 66.5965 71.7574C69.6751 68.8257 72.794 65.9358 75.8965 63.0295C79.9016 59.2768 83.9014 55.5205 87.9119 51.7769C88.9055 50.8488 89.4596 49.7663 89.1635 48.393C88.6403 45.9518 86.0301 44.9528 83.8487 46.3768C78.2977 49.9988 72.765 53.6514 67.2103 57.2697C66.6273 57.6493 66.3731 58.0128 66.4075 58.7702C66.582 62.6682 63.6992 66.0958 59.8484 66.2555C55.3928 66.4389 50.9263 66.3245 46.4633 66.3028C45.4752 66.2974 44.7578 65.4926 44.7359 64.5536C44.7123 63.5799 45.4462 62.7952 46.4724 62.7135C46.743 62.6918 47.0155 62.7044 47.2861 62.7044C51.1752 62.7044 55.066 62.7098 58.9548 62.7009C61.2162 62.6953 62.84 61.1478 62.8201 59.0443C62.8002 56.9738 61.198 55.477 58.9694 55.4679C56.8278 55.4588 54.6845 55.3879 52.5483 55.4878C50.5103 55.5823 48.8428 54.9248 47.1991 53.7387C41.748 49.8098 35.8047 49.0014 29.4599 51.2775C25.048 52.854 22.1036 56.3998 18.5724 59.2443ZM64.809 54.5253C67.4084 52.8213 69.8424 51.1449 72.3617 49.6119C73.3516 49.0087 73.6805 48.2859 73.6749 47.205C73.6405 38.5499 70.291 31.4149 63.5794 26.0185C57.2492 20.9272 49.8001 21.1451 43.5481 26.3292C38.9634 30.1308 36.0391 35.0025 34.6149 40.7514C34.1571 42.5969 34.0028 44.5187 33.723 46.3169C35.8391 46.4512 37.7101 46.4568 39.5465 46.7129C43.4173 47.2523 46.8684 48.8398 49.9508 51.2338C50.5376 51.6897 51.1497 52.004 51.938 51.7587C51.938 51.0668 51.938 50.4093 51.938 49.7971C51.3713 49.4828 50.8173 49.2321 50.3287 48.8889C49.8382 48.5455 49.3824 48.1388 48.9665 47.7063C48.0437 46.7454 47.9981 45.6793 48.803 44.9128C49.5985 44.1554 50.612 44.3007 51.5892 45.1998C52.087 45.6575 52.6718 46.0879 53.2949 46.3241C54.2412 46.682 55.2748 46.0135 55.5291 45.0309C55.7761 44.0736 55.1366 43.0546 54.1341 42.842C53.8724 42.7857 53.5945 42.8058 53.3239 42.7822C51.1388 42.5913 49.2516 41.0801 48.5958 38.9967C47.9364 36.906 48.5195 34.4285 50.3486 33.2497C51.6547 32.4086 52.1578 31.5403 52.0089 30.0363C51.9144 29.0719 52.81 28.3417 53.7508 28.329C54.7226 28.3162 55.5018 29.0555 55.5726 30.0836C55.6016 30.5032 55.6126 30.93 55.5763 31.3497C55.5235 31.9508 55.6853 32.2996 56.3047 32.5702C56.9786 32.8663 57.5907 33.3514 58.1502 33.8473C58.9565 34.5628 59.0093 35.5873 58.3699 36.3519C57.7086 37.1439 56.6843 37.2221 55.7852 36.5519C55.4727 36.3175 55.1731 36.0577 54.837 35.8652C54.0904 35.4383 53.3295 35.4184 52.6446 35.9852C52.0343 36.4918 51.8035 37.1603 52.0743 37.9305C52.3686 38.766 53.0025 39.1293 53.8724 39.1857C56.5845 39.3618 58.5298 40.993 59.0784 43.5178C59.6051 45.9427 58.459 48.2241 56.0886 49.5191C55.8851 49.6299 55.6308 49.857 55.6089 50.0533C55.5455 50.6345 55.5853 51.2266 55.5853 51.8733C59.0166 51.7823 62.3932 51.4537 64.809 54.5253ZM14.0133 60.127C10.9544 63.1767 7.87199 66.2518 4.89309 69.2235C11.1597 75.4938 17.4971 81.8349 23.7529 88.0942C26.7789 85.0843 29.8687 82.0146 32.8966 79.003C26.5936 72.7056 20.2562 66.3681 14.0133 60.127ZM46.7067 4.48682C48.0073 6.82817 49.2642 9.11502 50.5631 11.3783C50.6646 11.5563 51.0644 11.6398 51.3223 11.6344C52.2231 11.6198 53.1223 11.5181 54.0232 11.5072C54.9731 11.4945 56.1321 11.8923 56.817 11.4782C57.558 11.0295 57.8595 9.85249 58.3444 8.98787C59.1745 7.50569 59.9974 6.01987 60.8584 4.47409C56.0867 3.47327 51.444 3.45147 46.7067 4.48682ZM53.8253 14.8857C51.8563 15.2726 49.9019 15.596 47.982 16.0591C46.9285 16.3134 46.4525 17.3633 46.7521 18.3387C47.0373 19.2706 47.9364 19.7155 48.9918 19.4159C52.2032 18.504 55.4019 18.5367 58.626 19.3995C59.1219 19.5322 59.8629 19.3958 60.268 19.0889C61.3905 18.237 60.9674 16.4279 59.5251 16.0501C57.6688 15.5669 55.7651 15.2726 53.8253 14.8857Z" fill="#263238"/>
<path d="M41.1028 64.55C41.0775 65.5472 40.2037 66.359 39.2119 66.3083C38.2511 66.2592 37.4754 65.4236 37.4991 64.4628C37.5227 63.4638 38.3928 62.6554 39.3899 62.7045C40.3508 62.7553 41.1283 63.5908 41.1028 64.55Z" fill="#263238"/>
</g>
</g>
<defs>
<clipPath id="clip0_152_59">
<rect width="93" height="93" fill="white"/>
</clipPath>
</defs>
</svg>
