<svg width="61" height="61" viewBox="0 0 61 61" fill="none" xmlns="http://www.w3.org/2000/svg">
<path d="M8.46338 8.93256V48.2832L9.48548 54.9268L17.1512 57.482H36.0599L49.3471 55.9489L52.4134 53.3937V8.93256L49.3471 4.33313H11.5297L8.46338 8.93256Z" fill="#ECF2FF"/>
<path d="M47.5877 2.80005C48.335 3.0499 49.128 3.21156 49.8295 3.53489C52.9406 5.00457 54.8011 7.38544 54.9078 10.7657C55.0299 14.6456 54.9536 18.5256 54.9536 22.4055C54.9536 31.6645 54.9688 40.9235 54.9536 50.1824C54.9536 54.3857 52.6051 57.5749 48.7315 58.6331C47.8317 58.8829 46.8709 58.9858 45.9254 59.0005C35.9365 59.0299 25.9475 59.0299 15.9586 59.0152C10.6973 59.0152 6.96098 55.4879 6.94573 50.403C6.91523 37.4109 6.91523 24.419 6.94573 11.427C6.96098 7.07681 9.53827 4.00519 13.8998 2.97641C14.0523 2.94702 14.1743 2.85884 14.3116 2.80005C25.3985 2.80005 36.4855 2.80005 47.5877 2.80005ZM51.5223 30.959C51.5223 24.5512 51.5223 18.1434 51.5223 11.7503C51.5223 8.12028 49.433 6.10683 45.6814 6.10683C35.8907 6.10683 26.0848 6.10683 16.2941 6.10683C12.4663 6.10683 10.3923 8.10559 10.3923 11.8091C10.3923 24.5512 10.3923 37.2786 10.3923 50.0207C10.3923 53.7243 12.4663 55.7231 16.2941 55.7231C26.0543 55.7231 35.8145 55.7231 45.5747 55.7231C49.4787 55.7231 51.5223 53.739 51.5375 49.962C51.5223 43.6276 51.5223 37.2934 51.5223 30.959Z" fill="#283742"/>
<path d="M29.15 29.2396C28.1435 29.2396 27.1979 29.2984 26.2829 29.1955C25.9932 29.1661 25.6577 28.7252 25.5204 28.4166C24.6511 26.506 23.8276 24.5807 22.9889 22.6701C22.8669 22.3762 22.7144 22.097 22.3788 21.8324C22.3788 24.2427 22.3788 26.6677 22.3788 29.1661C21.1893 29.1661 20.1218 29.1661 18.978 29.1661C18.978 23.6989 18.978 18.3052 18.978 12.7204C19.9845 12.7204 21.0063 12.6763 21.9976 12.7498C22.2568 12.7645 22.5466 13.1907 22.6839 13.4846C23.6446 15.6157 24.5749 17.7761 25.7644 19.8924C25.7644 17.5263 25.7644 15.1601 25.7644 12.7645C26.9844 12.7645 28.0367 12.7645 29.15 12.7645C29.15 18.2611 29.15 23.6842 29.15 29.2396Z" fill="#283742"/>
<path d="M32.7036 20.9506C32.7036 19.7455 32.6426 18.5403 32.7188 17.3352C32.8866 14.778 34.9606 12.838 37.5837 12.7057C40.1152 12.5734 42.5858 14.3077 42.7993 16.7914C43.0433 19.5838 43.0433 22.4203 42.784 25.198C42.5553 27.6817 40.1305 29.3425 37.5227 29.2102C34.9301 29.0779 32.8866 27.182 32.7188 24.6689C32.6273 23.4491 32.7036 22.1998 32.7036 20.9506ZM36.1196 20.98C36.1196 22.0382 36.0891 23.0963 36.1196 24.1545C36.1501 25.2568 36.7296 25.874 37.7209 25.9181C38.7427 25.9622 39.5052 25.3302 39.5205 24.228C39.5662 22.0823 39.5662 19.9218 39.5205 17.7761C39.49 16.7179 38.6817 15.9978 37.7362 16.0419C36.8059 16.086 36.1501 16.7767 36.1196 17.8202C36.0891 18.8637 36.1196 19.9218 36.1196 20.98Z" fill="#283742"/>
<path d="M31.0107 45.7881C32.1088 45.7881 33.161 45.7881 34.2895 45.7881C34.2895 46.9197 34.2895 47.9485 34.2895 49.0507C32.0783 49.0507 29.8975 49.0507 27.6099 49.0507C27.6099 43.6129 27.6099 38.1604 27.6099 32.6344C29.806 32.6344 31.9868 32.6344 34.2743 32.6344C34.2743 33.6632 34.2743 34.692 34.2743 35.8677C33.2068 35.8677 32.124 35.8677 30.9955 35.8677C30.9955 37.0141 30.9955 38.0282 30.9955 39.1598C32.0783 39.1598 33.161 39.1598 34.3048 39.1598C34.3048 40.3062 34.3048 41.3055 34.3048 42.4519C33.2373 42.4519 32.1545 42.4519 31.0107 42.4519C31.0107 43.6276 31.0107 44.6564 31.0107 45.7881Z" fill="#283742"/>
<path d="M44.5984 45.7588C44.5984 46.9492 44.5984 47.9486 44.5984 49.0362C42.3566 49.0362 40.1453 49.0362 37.873 49.0362C37.873 43.5837 37.873 38.1605 37.873 32.6493C40.1148 32.6493 42.3261 32.6493 44.5984 32.6493C44.5984 33.7074 44.5984 34.7215 44.5984 35.8678C43.5004 35.8678 42.4329 35.8678 41.2891 35.8678C41.2891 37.0142 41.2891 38.0283 41.2891 39.1305C42.3719 39.1305 43.4242 39.1305 44.5679 39.1305C44.5679 40.2622 44.5679 41.3057 44.5679 42.4814C43.5004 42.4814 42.4176 42.4814 41.2891 42.4814C41.2891 43.6277 41.2891 44.6418 41.2891 45.7441C42.3719 45.7588 43.4089 45.7588 44.5984 45.7588Z" fill="#283742"/>
<path d="M17.3467 32.6051C19.6037 32.6051 21.754 32.6051 24.0111 32.6051C24.0111 33.678 24.0111 34.7068 24.0111 35.8384C22.9436 35.8384 21.8913 35.8384 20.7628 35.8384C20.7628 36.9701 20.7628 38.0135 20.7628 39.1452C21.8303 39.1452 22.8825 39.1452 24.0111 39.1452C24.0111 40.2768 24.0111 41.3203 24.0111 42.452C22.9436 42.452 21.8913 42.452 20.717 42.452C20.717 44.6859 20.717 46.8169 20.717 49.0214C19.5427 49.0214 18.4905 49.0214 17.3467 49.0214C17.3467 43.613 17.3467 38.1605 17.3467 32.6051Z" fill="#283742"/>
<path d="M36.1193 20.98C36.1193 19.9218 36.0888 18.8637 36.1345 17.8055C36.165 16.762 36.8208 16.0713 37.7511 16.0272C38.6966 15.9831 39.5201 16.7032 39.5354 17.7614C39.5811 19.9071 39.5811 22.0676 39.5354 24.2133C39.5049 25.3155 38.7423 25.9475 37.7358 25.9034C36.7598 25.8593 36.1803 25.2421 36.1345 24.1398C36.0888 23.0816 36.1193 22.0235 36.1193 20.98Z" fill="#C7EFC2"/>
</svg>
