<svg width="103" height="102" viewBox="0 0 103 102" fill="none" xmlns="http://www.w3.org/2000/svg">
<g clip-path="url(#clip0_152_43)">
<mask id="mask0_152_43" style="mask-type:luminance" maskUnits="userSpaceOnUse" x="0" y="0" width="103" height="102">
<path d="M102.5 0H0.5V102H102.5V0Z" fill="white"/>
</mask>
<g mask="url(#mask0_152_43)">
<path d="M87.2022 18.36C87.2022 17.544 83.1222 13.9399 81.0822 12.24C60.6822 -4.08004 35.1822 4.07995 24.9822 10.2C20.9022 12.648 17.1622 16.6599 15.8022 18.36C29.0622 17.3399 34.5021 17.6799 36.2022 18.36L38.2422 20.3999V23.4599L37.2222 29.5799L35.1822 43.8599L36.2022 61.1999L38.2422 72.4199L36.2022 79.5599L33.1422 80.5799L13.7622 82.6199L22.9422 90.7799C44.1582 106.284 69.8622 97.24 80.0622 90.7799C84.1422 87.5159 86.5221 84.6599 87.2022 83.6399L89.2422 82.6199L86.1822 81.5999H81.0822L64.7622 77.5199L65.7822 70.3799L64.7622 42.8399L63.7422 23.4599L66.8022 18.36H87.2022Z" fill="#EBF1FE"/>
<path d="M4.96863 18.1587C4.96863 19.5771 4.95668 20.8522 4.97063 22.1251C5.02841 27.1474 8.84543 31.0042 13.8598 31.046C18.2904 31.082 22.7211 31.084 27.1517 31.0442C32.0404 30.9983 35.8038 27.2729 35.9552 22.3781C35.997 21.0333 35.9611 19.6887 35.9611 18.33C37.9233 18.6547 39.8597 20.8003 40.2663 23.0733C40.3817 23.7169 40.4295 24.3803 40.4295 25.0338C40.4374 42.3458 40.4395 59.656 40.4336 76.9681C40.4315 81.5222 37.6824 84.2435 33.1043 84.2435C24.6574 84.2456 16.2125 84.2456 7.76568 84.2435C3.2952 84.2415 0.555941 81.5381 0.553948 77.0935C0.547972 59.6779 0.561917 42.2642 0.541995 24.8485C0.540003 22.1631 1.55602 20.0911 3.85302 18.6806C4.16379 18.4894 4.51641 18.3659 4.96863 18.1587ZM20.5316 37.7101C19.659 37.6204 19.0155 37.9969 18.6231 38.7978C18.4119 39.2301 18.1908 39.6663 18.0394 40.1226C16.6867 44.1826 15.346 48.2467 14.0132 52.3147C13.9175 52.6056 13.8697 52.9224 13.8657 53.2292C13.8538 54.261 14.5032 55.1117 15.4774 55.3808C16.5014 55.6656 17.7186 55.3051 18.0135 54.3229C18.378 53.1056 19.1749 53.1674 20.0814 53.1954C20.7368 53.2151 21.4002 53.1733 22.0477 53.2531C22.3127 53.2869 22.6692 53.5181 22.7708 53.7531C23.3586 55.1099 24.3886 55.7054 25.6077 55.3169C26.8229 54.9285 27.3888 53.6833 26.9386 52.2669C26.1515 49.8006 25.3488 47.3403 24.5179 44.8879C23.8545 42.9276 23.1633 40.9772 22.444 39.0367C22.1313 38.196 21.5377 37.6522 20.5316 37.7101ZM20.442 73.1808C16.8421 73.1808 13.2402 73.1669 9.64032 73.1869C7.99875 73.1949 7.03254 74.2488 7.23375 75.7249C7.38913 76.8665 8.32547 77.5897 9.71204 77.5917C15.1467 77.5997 20.5834 77.5956 26.0181 77.5956C27.8529 77.5956 29.6877 77.6215 31.5224 77.5835C32.8454 77.5558 33.7897 76.5717 33.7677 75.3465C33.7458 74.1551 32.8354 73.2647 31.5524 73.1929C31.2415 73.1749 30.9288 73.1829 30.6181 73.1829C27.2274 73.179 23.8347 73.179 20.442 73.1808Z" fill="#00357C"/>
<path d="M67.049 18.1389C67.049 19.7904 67.0031 21.2089 67.0569 22.6253C67.2321 27.2132 70.9776 30.9566 75.5755 31.0303C80.2133 31.1041 84.8531 31.108 89.4908 31.0285C94.1128 30.9487 97.878 27.1257 98.0174 22.5019C98.0592 21.1192 98.0235 19.7347 98.0235 18.1509C98.4856 18.368 98.8562 18.4995 99.1828 18.7027C101.171 19.9359 102.329 21.7069 102.416 24.0637C102.488 26.0339 102.446 28.0103 102.446 29.9825C102.448 45.7007 102.45 61.4191 102.444 77.1376C102.442 80.8989 100.32 83.5464 96.844 84.1541C96.3381 84.2416 95.8101 84.2416 95.2942 84.2416C86.7794 84.2478 78.2628 84.2478 69.7483 84.2437C65.3376 84.2416 62.5685 81.4685 62.5665 77.03C62.5605 59.6501 62.5665 42.2682 62.5605 24.8885C62.5605 22.2269 63.5626 20.1191 65.8656 18.7027C66.1744 18.5095 66.5249 18.384 67.049 18.1389ZM88.1003 46.5535C90.8096 42.5053 87.9251 37.4132 83.0283 37.6903C81.4762 37.778 79.9144 37.6923 78.3565 37.7082C76.7767 37.7241 75.8783 38.5569 75.8683 40.1287C75.8385 44.4198 75.8385 48.713 75.8683 53.0062C75.8803 54.586 76.7528 55.3928 78.3606 55.4107C80.0897 55.4307 81.823 55.4526 83.5501 55.3969C84.2615 55.373 85.0005 55.2414 85.6719 55.0023C88.4192 54.0182 90.471 50.3426 88.1003 46.5535ZM82.576 73.181V73.1871C78.8726 73.1871 75.1671 73.1691 71.4635 73.1971C70.1785 73.2069 69.2621 74.1373 69.2303 75.3228C69.1965 76.5498 70.1367 77.5121 71.4537 77.5878C71.7306 77.6037 72.0074 77.5937 72.2844 77.5937C77.8924 77.5937 83.5024 77.5937 89.1103 77.5937C90.5985 77.5937 92.0887 77.6257 93.5769 77.5798C95.069 77.536 96.0153 76.3366 95.7503 74.9162C95.5512 73.8485 94.6905 73.191 93.3796 73.1851C89.7758 73.1712 86.1758 73.181 82.576 73.181Z" fill="#00357C"/>
<path d="M20.5137 10.923C21.1292 10.156 21.4899 9.41488 22.0815 9.01447C28.4783 4.68942 35.5129 1.90833 43.1408 0.740905C56.7038 -1.33495 69.2645 1.38837 80.7972 8.8292C80.9726 8.94074 81.144 9.05629 81.3133 9.17781C82.4767 10.0165 82.7615 11.2497 82.0424 12.3314C81.3451 13.3813 80.0622 13.5945 78.8429 12.8534C77.6615 12.1342 76.5261 11.3294 75.3029 10.6919C58.0783 1.70114 41.1906 2.33865 24.6633 12.5406C23.8108 13.0666 22.9342 13.475 22.0715 12.8534C21.4879 12.435 21.1254 11.7059 20.5137 10.923Z" fill="#263238"/>
<path d="M49.1607 101.93C40.7021 101.864 30.8187 98.888 21.8419 92.9235C20.81 92.2382 20.3757 91.3416 20.6247 90.4053C20.8817 89.443 21.5132 88.7439 22.5014 88.7439C23.1707 88.7419 23.9257 89.0228 24.4975 89.3953C29.5319 92.6764 34.9446 95.0651 40.8216 96.3301C54.0737 99.181 66.4412 96.9496 77.9162 89.7439C78.1791 89.5785 78.4321 89.3932 78.6989 89.236C79.8287 88.5664 81.1255 88.8473 81.7809 89.8973C82.4064 90.8953 82.1734 92.2819 81.0837 92.8955C78.0455 94.6048 75.0453 96.4237 71.8639 97.8242C65.3791 100.675 58.56 101.922 49.1607 101.93Z" fill="#263238"/>
<path d="M71.4424 17.7942C78.8852 17.7942 86.1806 17.7942 93.6872 17.7942C93.6015 19.6868 93.6792 21.5634 93.3904 23.3802C93.0915 25.257 91.2688 26.5918 89.1988 26.6156C84.7343 26.6693 80.2679 26.6872 75.8033 26.6095C73.2136 26.5638 71.4663 24.6234 71.4424 22.0177C71.4324 20.6391 71.4424 19.2604 71.4424 17.7942Z" fill="#263238"/>
<path d="M9.41518 17.7942C16.8182 17.7942 24.1136 17.7942 31.4089 17.7942C31.4089 19.623 31.612 21.4659 31.3552 23.2409C31.0602 25.2927 29.2752 26.5956 27.0879 26.6195C22.6932 26.6675 18.2964 26.6713 13.8996 26.6216C11.4392 26.5936 9.63631 24.962 9.43709 22.5675C9.31159 21.0254 9.41518 19.4656 9.41518 17.7942Z" fill="#263238"/>
<path d="M80.3628 44.3122C80.3628 43.5731 80.3628 42.9277 80.3628 42.2224C81.5521 42.2224 82.7116 42.1447 83.8492 42.2722C84.178 42.3102 84.6819 42.9536 84.6621 43.2961C84.6421 43.6508 84.1162 44.2245 83.7596 44.2663C82.6798 44.3938 81.5721 44.3122 80.3628 44.3122Z" fill="#00357C"/>
<path d="M80.3867 50.9559C80.3867 50.2186 80.3867 49.5493 80.3867 48.862C81.576 48.862 82.7095 48.7823 83.8172 48.9098C84.1558 48.9498 84.6699 49.5693 84.662 49.9118C84.654 50.2645 84.1358 50.8661 83.7892 50.9061C82.6797 51.0355 81.544 50.9559 80.3867 50.9559Z" fill="#00357C"/>
</g>
</g>
<defs>
<clipPath id="clip0_152_43">
<rect width="102" height="102" fill="white" transform="translate(0.5)"/>
</clipPath>
</defs>
</svg>
