<svg width="47" height="38" viewBox="0 0 47 38" fill="none" xmlns="http://www.w3.org/2000/svg">
<path d="M0.813187 28.5504C0.55687 27.2687 0.428711 25.8804 0.428711 24.3853C0.428711 22.2493 0.685027 20.0065 1.19766 17.6569C1.753 15.3074 2.6074 13.0646 3.76081 10.9287C4.95695 8.74998 6.47349 6.78489 8.31042 5.03339C10.1473 3.28191 12.3901 1.93625 15.0387 0.996427C15.3804 0.825551 15.7649 0.740112 16.1921 0.740112C16.5766 0.740112 16.9397 0.86827 17.2815 1.12459C17.6232 1.3809 17.7941 1.91489 17.7941 2.72656V6.2509C16.7689 6.89169 15.7649 7.68199 14.7824 8.62182C13.8426 9.56165 12.9881 10.6083 12.2192 11.7617C11.493 12.9151 10.8949 14.1753 10.425 15.5423C9.99783 16.8666 9.78424 18.2337 9.78424 19.6434C9.86967 19.558 9.97647 19.5152 10.1046 19.5152C10.2755 19.5152 10.425 19.5152 10.5532 19.5152C11.9202 19.5152 13.1804 19.7502 14.3338 20.2202C15.4872 20.69 16.4698 21.3308 17.2815 22.1425C18.0931 22.9114 18.7126 23.8513 19.1397 24.9619C19.6097 26.0727 19.8446 27.2687 19.8446 28.5504C19.8446 29.7892 19.6097 30.9426 19.1397 32.0106C18.7126 33.0359 18.0931 33.9543 17.2815 34.766C16.4698 35.5776 15.4872 36.2185 14.3338 36.6884C13.1804 37.1156 11.9202 37.3292 10.5532 37.3292C9.14344 37.3292 7.88323 37.1156 6.77252 36.6884C5.66182 36.2185 4.70064 35.5776 3.88898 34.766C3.12002 33.9543 2.47924 33.0359 1.9666 32.0106C1.45397 30.9426 1.0695 29.7892 0.813187 28.5504ZM27.5981 28.5504C27.3418 27.2687 27.2137 25.8804 27.2137 24.3853C27.2137 22.2493 27.47 20.0065 27.9826 17.6569C28.538 15.3074 29.3923 13.0646 30.5458 10.9287C31.742 8.74998 33.2585 6.78489 35.0954 5.03339C36.9324 3.28191 39.1538 1.93625 41.7595 0.996427C41.9305 0.910989 42.1014 0.84691 42.2723 0.804191C42.4858 0.761472 42.7208 0.740112 42.9771 0.740112C43.3616 0.740112 43.7034 0.86827 44.0023 1.12459C44.3442 1.3809 44.5151 1.91489 44.5151 2.72656V6.2509C43.4897 6.89169 42.5072 7.68199 41.5674 8.62182C40.6275 9.56165 39.7732 10.6083 39.0042 11.7617C38.278 12.9151 37.6799 14.1753 37.2101 15.5423C36.7828 16.8666 36.5693 18.2337 36.5693 19.6434C36.6547 19.558 36.7615 19.5152 36.8896 19.5152C37.0605 19.5152 37.2101 19.5152 37.3382 19.5152C38.7052 19.5152 39.9654 19.7502 41.1189 20.2202C42.2723 20.69 43.2548 21.3308 44.0665 22.1425C44.8782 22.9114 45.4976 23.8513 45.9248 24.9619C46.3947 26.0727 46.6296 27.2687 46.6296 28.5504C46.6296 29.7892 46.3947 30.9426 45.9248 32.0106C45.4976 33.0359 44.8782 33.9543 44.0665 34.766C43.2548 35.5776 42.2723 36.2185 41.1189 36.6884C39.9654 37.1156 38.7052 37.3292 37.3382 37.3292C35.9284 37.3292 34.6682 37.1156 33.5574 36.6884C32.4468 36.2185 31.4857 35.5776 30.674 34.766C29.9049 33.9543 29.2643 33.0359 28.7515 32.0106C28.2389 30.9426 27.8544 29.7892 27.5981 28.5504Z" fill="#8692A3"/>
</svg>
