<svg width="27" height="27" viewBox="0 0 27 27" fill="none" xmlns="http://www.w3.org/2000/svg">
<path fill-rule="evenodd" clip-rule="evenodd" d="M13.5 27C17.0804 27 20.5142 25.5777 23.0459 23.0459C25.5777 20.5142 27 17.0804 27 13.5C27 9.91958 25.5777 6.4858 23.0459 3.95406C20.5142 1.42232 17.0804 0 13.5 0C9.91958 0 6.4858 1.42232 3.95406 3.95406C1.42232 6.4858 0 9.91958 0 13.5C0 17.0804 1.42232 20.5142 3.95406 23.0459C6.4858 25.5777 9.91958 27 13.5 27ZM19.7556 11.3181C20.063 10.9998 20.233 10.5735 20.2292 10.1311C20.2254 9.68862 20.0479 9.26537 19.735 8.95249C19.4221 8.63962 18.9989 8.46214 18.5564 8.4583C18.114 8.45445 17.6877 8.62455 17.3694 8.93194L11.8125 14.4889L9.63056 12.3069C9.3123 11.9995 8.88603 11.8295 8.44357 11.8333C8.00112 11.8371 7.57787 12.0146 7.26499 12.3275C6.95212 12.6404 6.77464 13.0636 6.7708 13.5061C6.76695 13.9485 6.93705 14.3748 7.24444 14.6931L10.6194 18.0681C10.9359 18.3844 11.365 18.5621 11.8125 18.5621C12.26 18.5621 12.6891 18.3844 13.0056 18.0681L19.7556 11.3181Z" fill="white"/>
</svg>
