<svg width="23" height="19" viewBox="0 0 23 19" fill="none" xmlns="http://www.w3.org/2000/svg">
<g clip-path="url(#clip0_144_860)">
<path fill-rule="evenodd" clip-rule="evenodd" d="M20.1824 5.05007V5.63707C20.1904 7.9508 19.5755 10.224 18.4023 12.2182C17.229 14.2124 15.5407 15.8541 13.5144 16.971C11.4926 18.0826 9.20745 18.6254 6.90181 18.5417C4.59617 18.4581 2.35631 17.7511 0.42041 16.496C0.80941 16.496 1.10141 16.593 1.49141 16.593C3.54388 16.6192 5.54097 15.9273 7.13741 14.637C6.20096 14.6149 5.29466 14.3016 4.54448 13.7406C3.79429 13.1797 3.23749 12.399 2.95142 11.507C3.23613 11.5871 3.53207 11.6199 3.82741 11.604C4.2236 11.5866 4.61618 11.5207 4.99641 11.408C3.98112 11.2011 3.06827 10.6503 2.4119 9.84861C1.75552 9.04686 1.3958 8.04323 1.39342 7.00707V6.90907C1.98722 7.24274 2.65942 7.41157 3.34041 7.39807C2.72313 6.99143 2.21435 6.44037 1.85817 5.79266C1.50199 5.14495 1.30918 4.42014 1.29642 3.68107C1.28134 2.89174 1.48335 2.11343 1.88042 1.43107C3.00618 2.84257 4.42457 3.99322 6.03786 4.80375C7.65115 5.61428 9.42097 6.06541 11.2254 6.12607C11.2254 5.83307 11.1284 5.44207 11.1284 5.05007C11.1574 2.57707 13.1454 0.57807 15.6064 0.55007C16.2308 0.545032 16.8491 0.673388 17.42 0.926552C17.9908 1.17972 18.501 1.55186 18.9164 2.01807C19.9118 1.82224 20.8665 1.45801 21.7394 0.94107C21.4132 1.99345 20.723 2.89531 19.7924 3.48507C20.6898 3.34928 21.5706 3.12003 22.4204 2.80107C21.7752 3.64474 21.0229 4.40076 20.1824 5.05007Z" fill="white"/>
</g>
<defs>
<clipPath id="clip0_144_860">
<rect width="22" height="18" fill="white" transform="translate(0.42041 0.549927)"/>
</clipPath>
</defs>
</svg>
