<svg width="61" height="61" viewBox="0 0 61 61" fill="none" xmlns="http://www.w3.org/2000/svg">
<g clip-path="url(#clip0_152_261)">
<mask id="mask0_152_261" style="mask-type:luminance" maskUnits="userSpaceOnUse" x="0" y="0" width="61" height="61">
<path d="M60.9199 0.390015H0.919922V60.39H60.9199V0.390015Z" fill="white"/>
</mask>
<g mask="url(#mask0_152_261)">
<path d="M40.4358 12.6222C42.0321 12.6222 43.5354 12.6222 45.0387 12.6222C49.0062 12.638 51.9199 15.5996 51.9199 19.6482C51.9199 30.6912 51.9199 41.75 51.9199 52.793C51.9199 56.8416 49.0992 59.8347 45.1317 59.8504C35.6623 59.8819 26.1775 59.8819 16.7081 59.8504C12.7561 59.8347 9.93542 56.8258 9.91992 52.793C9.91992 40.0486 9.91992 27.3042 9.91992 14.5599C9.91992 13.7092 10.1989 13.0791 10.9428 12.6695C17.9789 8.80994 25.0151 4.93465 32.0513 1.0751C35.2439 -0.673515 39.2734 1.0751 40.2343 4.61958C40.3583 5.10793 40.4203 5.62779 40.4358 6.13189C40.4513 8.14831 40.4513 10.149 40.4513 12.1654C40.4358 12.2914 40.4358 12.4174 40.4358 12.6222ZM12.942 15.6626C12.9265 15.8989 12.911 16.0564 12.911 16.2139C12.911 28.4385 12.911 40.6787 12.911 52.9032C12.911 55.2505 14.4764 56.8258 16.7856 56.8258C26.1775 56.8258 35.5848 56.8258 44.9767 56.8258C47.3944 56.8258 48.9288 55.2662 48.9288 52.793C48.9288 41.7657 48.9288 30.7384 48.9288 19.7112C48.9288 19.3331 48.9133 18.955 48.8358 18.5927C48.4173 16.7496 46.976 15.6626 44.9457 15.6626C34.4845 15.6626 24.0232 15.6626 13.562 15.6626C13.376 15.6626 13.19 15.6626 12.942 15.6626ZM17.545 12.4962C17.545 12.5277 17.5605 12.5592 17.5605 12.5907C24.1782 12.5907 30.7804 12.5907 37.4136 12.5907C37.4136 10.2592 37.4446 7.95927 37.3826 5.65929C37.3671 5.23396 37.0882 4.76136 36.8092 4.39904C35.9723 3.32782 34.624 3.09152 33.4151 3.7374C30.8734 5.12368 28.3472 6.50997 25.821 7.91201C23.0623 9.44007 20.3037 10.9681 17.545 12.4962Z" fill="#283742" stroke="white" stroke-width="0.2"/>
<path d="M12.9423 15.6624C13.1903 15.6624 13.3763 15.6624 13.5777 15.6624C24.039 15.6624 34.5002 15.6624 44.9615 15.6624C46.9918 15.6624 48.4331 16.7494 48.8515 18.5925C48.929 18.9549 48.9445 19.3329 48.9445 19.711C48.9445 30.7383 48.9445 41.7656 48.9445 52.7928C48.9445 55.2661 47.4102 56.8257 44.9925 56.8257C35.6006 56.8257 26.1932 56.8257 16.8013 56.8257C14.4921 56.8257 12.9268 55.2503 12.9268 52.9031C12.9268 40.6786 12.9268 28.4383 12.9268 16.2138C12.9113 16.0563 12.9268 15.8987 12.9423 15.6624ZM30.7807 21.5857C26.1622 21.4124 19.9475 25.461 19.9785 32.6759C20.0095 39.1663 24.7829 44.034 31.0751 44.034C36.8405 44.034 41.9549 38.7882 41.9394 32.8807C41.9549 26.6109 36.9489 21.5542 30.7807 21.5857ZM30.9047 50.9182C33.4774 50.9182 36.0501 50.9182 38.6073 50.9182C39.5526 50.9182 40.1261 50.3038 40.1106 49.3586C40.0951 48.3977 39.5061 47.8936 38.3903 47.8936C33.4309 47.8936 28.456 47.8936 23.4965 47.8936C23.2796 47.8936 23.0781 47.9093 22.8611 47.9408C22.2877 48.0354 21.8537 48.4922 21.7453 49.0751C21.5593 50.1305 22.1792 50.9024 23.2331 50.9024C25.8058 50.9182 28.3475 50.9182 30.9047 50.9182Z" fill="#E2EBFE"/>
<path d="M30.7806 21.5857C36.9489 21.57 41.9548 26.611 41.9548 32.8808C41.9548 38.7883 36.8404 44.0341 31.0906 44.0341C24.7828 44.0341 20.0249 39.1664 19.9939 32.676C19.9474 25.461 26.1777 21.3967 30.7806 21.5857ZM28.2699 34.3301C28.3784 36.7089 29.0758 38.8355 30.3622 40.7574C30.6101 41.1198 31.3075 41.0883 31.54 40.6944C31.912 40.0643 32.2994 39.4184 32.5939 38.741C33.1983 37.3547 33.5548 35.8897 33.5858 34.3301C31.8035 34.3301 30.0522 34.3301 28.2699 34.3301ZM33.6013 31.2582C33.4618 28.8795 32.7644 26.7371 31.4625 24.8152C31.1991 24.4371 30.6256 24.4843 30.3467 24.8939C29.5098 26.1384 28.9208 27.509 28.5954 28.974C28.4404 29.7144 28.3474 30.4548 28.2389 31.2425C30.0677 31.2582 31.788 31.2582 33.6013 31.2582ZM23.047 34.2986C23.4345 36.4568 24.9223 38.741 26.1312 39.2766C25.8677 37.7643 25.6042 36.189 25.3098 34.6137C25.2943 34.4876 25.1083 34.3144 24.9998 34.2986C24.3644 34.2829 23.7289 34.2986 23.047 34.2986ZM25.1703 31.2582C25.5267 29.5411 25.8677 27.887 26.2086 26.1857C24.4884 27.446 23.4965 29.1473 23.0315 31.2582C23.7909 31.2582 24.5039 31.2582 25.1703 31.2582ZM35.678 39.3396C37.1813 38.4102 38.7467 35.8739 38.7312 34.3144C38.0337 34.3144 37.3518 34.3144 36.7009 34.3144C36.3444 36.0315 36.0035 37.7171 35.678 39.3396ZM35.6625 26.1857C36.019 27.887 36.3599 29.5569 36.7009 31.2425C37.3828 31.2425 38.0802 31.2425 38.8241 31.2425C38.3437 29.1473 37.3363 27.446 35.6625 26.1857Z" fill="#283742"/>
<path d="M30.9043 50.9184C28.3471 50.9184 25.8054 50.9184 23.2482 50.9184C22.1943 50.9184 21.5744 50.1307 21.7603 49.091C21.8688 48.5082 22.2873 48.0513 22.8762 47.9568C23.0777 47.9253 23.2947 47.9095 23.5116 47.9095C28.471 47.9095 33.446 47.9095 38.4054 47.9095C39.5212 47.9095 40.1102 48.4294 40.1257 49.3746C40.1412 50.3198 39.5677 50.9184 38.6223 50.9342C36.0496 50.9184 33.4769 50.9184 30.9043 50.9184Z" fill="#283742"/>
<path d="M28.27 34.3301C30.0522 34.3301 31.788 34.3301 33.5858 34.3301C33.5548 35.8896 33.1984 37.3547 32.5939 38.741C32.2995 39.4184 31.912 40.0642 31.5401 40.6944C31.3076 41.0882 30.5947 41.1197 30.3622 40.7574C29.0759 38.8197 28.3939 36.6931 28.27 34.3301Z" fill="#E2EBFE"/>
<path d="M33.6012 31.2581C31.7879 31.2581 30.0676 31.2581 28.2388 31.2581C28.3628 30.4704 28.4403 29.73 28.5953 28.9896C28.9053 27.5088 29.5097 26.154 30.3466 24.9095C30.6256 24.4999 31.199 24.4369 31.4625 24.8307C32.7643 26.7369 33.4617 28.8793 33.6012 31.2581Z" fill="#E2EBFE"/>
<path d="M23.0464 34.2985C23.7283 34.2985 24.3638 34.2827 24.9837 34.3142C25.0922 34.3142 25.2781 34.5033 25.2936 34.6293C25.5881 36.2046 25.8516 37.7799 26.115 39.2923C24.9217 38.7409 23.4494 36.4567 23.0464 34.2985Z" fill="#E2EBFE"/>
<path d="M25.17 31.2584C24.5036 31.2584 23.7907 31.2584 23.0312 31.2584C23.4963 29.1475 24.4882 27.4462 26.2084 26.1859C25.8675 27.8872 25.5264 29.5413 25.17 31.2584Z" fill="#E2EBFE"/>
<path d="M35.6777 39.3395C36.0032 37.7169 36.3441 36.0313 36.7006 34.3142C37.3515 34.3142 38.0334 34.3142 38.7308 34.3142C38.7463 35.8738 37.181 38.41 35.6777 39.3395Z" fill="#E2EBFE"/>
<path d="M35.6616 26.1859C37.3354 27.4462 38.3428 29.1318 38.8233 31.2427C38.0794 31.2427 37.3819 31.2427 36.7 31.2427C36.3591 29.5728 36.0026 27.8872 35.6616 26.1859Z" fill="#E2EBFE"/>
</g>
</g>
<defs>
<clipPath id="clip0_152_261">
<rect width="60" height="60" fill="white" transform="translate(0.919922 0.390015)"/>
</clipPath>
</defs>
</svg>
