<svg width="27" height="20" viewBox="0 0 27 20" fill="none" xmlns="http://www.w3.org/2000/svg">
<g clip-path="url(#clip0_144_866)">
<path fill-rule="evenodd" clip-rule="evenodd" d="M0.600098 6.16603C0.600098 3.20503 2.7621 0.69003 5.7101 0.41603C10.9588 -0.0721075 16.2414 -0.0721075 21.4901 0.41603C24.4391 0.69003 26.6001 3.20503 26.6001 6.16603V12.871C26.6001 15.833 24.4381 18.348 21.4901 18.621C16.2414 19.1092 10.9588 19.1092 5.7101 18.621C2.7611 18.348 0.600098 15.833 0.600098 12.871V6.16603ZM11.3241 12.657C11.2479 12.6952 11.1631 12.7132 11.078 12.7095C10.9928 12.7057 10.91 12.6802 10.8374 12.6354C10.7649 12.5906 10.705 12.528 10.6635 12.4535C10.6219 12.3791 10.6001 12.2952 10.6001 12.21V6.82799C10.6001 6.74273 10.6219 6.65888 10.6635 6.58442C10.705 6.50996 10.7649 6.44735 10.8374 6.40256C10.91 6.35777 10.9928 6.33227 11.078 6.3285C11.1631 6.32472 11.2479 6.34279 11.3241 6.38099L14.0151 7.72649L16.7061 9.07199C16.7893 9.11346 16.8593 9.1773 16.9082 9.25635C16.9571 9.3354 16.9831 9.42652 16.9831 9.51949C16.9831 9.61245 16.9571 9.70358 16.9082 9.78263C16.8593 9.86168 16.7893 9.92552 16.7061 9.96699L11.3241 12.657Z" fill="white"/>
</g>
<defs>
<clipPath id="clip0_144_866">
<rect width="26" height="19" fill="white" transform="translate(0.600098 0.0499268)"/>
</clipPath>
</defs>
</svg>
